<?xml version="1.0" standalone="no"?>
<!DOCTYPE svg PUBLIC "-//W3C//DTD SVG 20010904//EN"
 "http://www.w3.org/TR/2001/REC-SVG-20010904/DTD/svg10.dtd">
<svg version="1.0" xmlns="http://www.w3.org/2000/svg"
 width="250.000000pt" height="250.000000pt" viewBox="0 0 250.000000 250.000000"
 preserveAspectRatio="xMidYMid meet">
<metadata>
Created by potrace 1.11, written by Peter Selinger 2001-2013
</metadata>
<g transform="translate(0.000000,250.000000) scale(0.100000,-0.100000)"
fill="#000000" stroke="none">
<path d="M1145 2017 c-40 -19 -91 -78 -100 -117 -5 -22 -1 -43 14 -72 l20 -42
-21 -14 c-80 -57 -157 -159 -184 -246 -31 -104 -37 -395 -8 -469 20 -53 -100
48 -142 118 -116 199 -88 425 71 574 36 34 62 61 57 61 -5 0 -40 -22 -79 -49
-148 -105 -221 -263 -209 -456 19 -330 40 -426 117 -545 45 -70 95 -99 171
-100 99 0 113 20 82 126 -8 30 -14 66 -12 81 2 23 17 0 75 -118 61 -124 79
-153 128 -197 63 -58 125 -82 212 -82 61 0 123 22 123 43 0 8 -11 45 -25 82
-48 126 -44 266 8 323 26 28 43 28 62 -1 24 -38 28 -105 11 -203 -18 -103 -11
-143 29 -164 50 -27 165 10 223 73 13 13 41 65 62 115 83 193 126 457 101 625
-7 48 -17 89 -21 92 -4 2 -10 -24 -12 -59 -13 -162 -128 -283 -288 -304 -45
-7 -65 -15 -84 -35 -29 -31 -54 -34 -98 -11 -22 11 -43 14 -74 9 -52 -7 -77 4
-94 45 -10 24 -29 38 -84 64 -90 41 -139 95 -166 184 -11 35 -20 83 -20 106 0
80 48 217 99 285 14 19 21 20 43 12 23 -9 34 -5 82 29 31 22 70 47 86 55 22
12 30 23 30 43 -1 35 -31 102 -58 125 -27 24 -89 31 -127 14z m318 -1006 c12
-12 -17 -31 -55 -37 -35 -5 -98 25 -98 47 0 13 139 4 153 -10z"/>
<path d="M1732 1930 c-37 -23 -77 -99 -67 -129 3 -10 17 -23 31 -29 13 -7 46
-32 73 -57 26 -25 58 -45 70 -45 28 0 97 70 106 108 9 42 -23 112 -65 142 -45
32 -106 36 -148 10z"/>
<path d="M1224 1510 c-27 -11 -72 -65 -80 -96 -11 -43 3 -107 26 -126 40 -32
70 -23 127 38 44 47 53 62 53 93 0 34 -20 76 -44 93 -14 10 -56 9 -82 -2z"/>
<path d="M1590 1467 c-12 -7 -33 -30 -46 -53 l-24 -41 37 -72 c40 -79 60 -95
103 -86 54 12 80 72 66 149 -13 71 -88 127 -136 103z"/>
<path d="M1333 1180 c-22 -9 -33 -40 -14 -40 4 0 25 -11 44 -25 33 -22 39 -23
69 -11 18 7 41 16 51 19 26 10 5 44 -30 51 -67 13 -100 15 -120 6z"/>
</g>
</svg>
